<?xml version="1.0" encoding="utf-8"?>
<!-- Generator: Adobe Illustrator 26.1.0, SVG Export Plug-In . SVG Version: 6.00 Build 0)  -->
<svg version="1.1" id="Layer_1" xmlns="http://www.w3.org/2000/svg" xmlns:xlink="http://www.w3.org/1999/xlink" x="0px" y="0px"
	 viewBox="0 0 700 700" style="enable-background:new 0 0 700 700;" xml:space="preserve">
<style type="text/css">
	.st0{fill:#7B1710;}
</style>
<g>
	<path class="st0" d="M210,288.8h-52.1l122.1-158l122.1,157.9H350c-7.4,0-13.1,5.7-13.1,13.1v43.8c0,7.4,5.7,13.1,13.1,13.1
		s13.1-5.7,13.1-13.1V315h65.6c4.8,0,9.6-3.1,11.8-7.4s1.8-10.1-1.3-14L290.5,101.1c-2.6-3.1-6.6-4.8-10.5-4.8s-7.9,1.8-10.5,5.2
		L120.7,294c-3.1,3.9-3.5,9.2-1.3,14c2.2,4.4,6.6,7.4,11.8,7.4h65.6v210c0,7.4,5.7,13.1,13.1,13.1s13.1-5.7,13.1-13.1V301.9
		C223.1,294.4,217.4,288.8,210,288.8L210,288.8z"/>
	<path class="st0" d="M580.6,392.4c-2.2-4.4-6.6-7.4-11.8-7.4h-65.6V144.4c0-7.4-5.7-13.1-13.1-13.1S477,137,477,144.4v253.8
		c0,7.4,5.7,13.1,13.1,13.1h52.1L420,569.2L297.9,411.3H350c7.4,0,13.1-5.7,13.1-13.1S357.4,385,350,385h-78.8
		c-4.8,0-9.6,3.1-11.8,7.4s-1.8,10.1,1.3,14l148.8,192.5c2.6,3.1,6.1,5.2,10.5,5.2s7.9-1.8,10.5-5.2l148.8-192.5
		C582.3,402.1,582.8,396.8,580.6,392.4L580.6,392.4z"/>
	<path class="st0" d="M420,196.9c7.4,0,13.1-5.7,13.1-13.1v-52.5c0-7.4-5.7-13.1-13.1-13.1s-13.1,5.7-13.1,13.1v52.5
		C406.9,191.2,412.6,196.9,420,196.9z"/>
	<path class="st0" d="M275.6,485.6c-7.4,0-13.1,5.7-13.1,13.1v56.9c0,7.4,5.7,13.1,13.1,13.1s13.1-5.7,13.1-13.1v-56.9
		C288.7,491.3,283.1,485.6,275.6,485.6z"/>
	<path class="st0" d="M288.7,612.5c0,7.2-5.9,13.1-13.1,13.1s-13.1-5.9-13.1-13.1s5.9-13.1,13.1-13.1S288.7,605.2,288.7,612.5"/>
	<path class="st0" d="M503.1,87.5c0,7.2-5.9,13.1-13.1,13.1s-13.1-5.9-13.1-13.1s5.9-13.1,13.1-13.1S503.1,80.2,503.1,87.5"/>
</g>
</svg>
