<?xml version="1.0" encoding="utf-8"?>
<!-- Generator: Adobe Illustrator 26.1.0, SVG Export Plug-In . SVG Version: 6.00 Build 0)  -->
<svg version="1.1" id="Layer_1" xmlns="http://www.w3.org/2000/svg" xmlns:xlink="http://www.w3.org/1999/xlink" x="0px" y="0px"
	 viewBox="0 0 700 700" style="enable-background:new 0 0 700 700;" xml:space="preserve">
<style type="text/css">
	.st0{fill:#7B1710;}
</style>
<g>
	<path class="st0" d="M498.9,297.2c-5.2-4-51.4-55-76.6-77.5v-69.3c0-23.1-18.9-42-42-42H229.4c-23.1,0-42,18.9-42,42v238.3
		c0,23.1,18.9,42,42,42h74.9l10.7,10c0,0,11.6,48.4,43.6,81.8V535c-5.6,2.4-9.5,8-9.5,14.5V576c0,8.7,7.1,15.8,15.8,15.8h110.6
		c8.7,0,15.8-7.1,15.8-15.8v-26.5c0-6.4-3.8-11.9-9.3-14.4c3.7-33.9,19.8-179.5,28.2-187.2C510.1,347.9,520.6,314,498.9,297.2
		L498.9,297.2z M380.8,134.6c8.4,0,15.2,6.8,15.2,15.2V373c-3.2,7.9-11.1,10-21,9V134.6H380.8z M228.9,407.9
		c-8.4,0-15.2-6.8-15.2-15.2V149.8c0-8.4,6.8-15.2,15.2-15.2h106.2v233.7c-15.6-7.6-27.9-15.6-27.9-15.6s-56-53-80.1-30.1
		c0,0-13.4,20.1,12.1,47l41,38.4L228.9,407.9z"/>
	<path class="st0" d="M230,218.9c0,15,12.2,27.2,27.2,27.2c15,0,27.2-12.2,27.2-27.2c0-8.3-3.7-15.7-9.5-20.7
		c5.8-5,9.5-12.4,9.5-20.7c0-15-12.2-27.2-27.2-27.2S230,162.6,230,177.6c0,8.3,3.7,15.7,9.5,20.7C233.7,203.3,230,210.7,230,218.9
		L230,218.9z"/>
</g>
</svg>
