<?xml version="1.0" encoding="utf-8"?>
<!-- Generator: Adobe Illustrator 26.1.0, SVG Export Plug-In . SVG Version: 6.00 Build 0)  -->
<svg version="1.1" id="Layer_1" xmlns="http://www.w3.org/2000/svg" xmlns:xlink="http://www.w3.org/1999/xlink" x="0px" y="0px"
	 viewBox="0 0 700 700" style="enable-background:new 0 0 700 700;" xml:space="preserve">
<g>
	<path d="M630,175v61.2H70V175c0-4.6,1.8-9.1,5.1-12.4s7.7-5.1,12.4-5.1h525c4.6,0,9.1,1.8,12.4,5.1S630,170.4,630,175z M70,306.2
		h560V525c0,4.6-1.8,9.1-5.1,12.4s-7.7,5.1-12.4,5.1h-525c-4.6,0-9.1-1.8-12.4-5.1S70,529.6,70,525V306.2z M437.5,455
		c0,14,5.6,27.4,15.5,37.2c9.9,9.8,23.4,15.3,37.4,15.2c14-0.1,27.4-5.8,37.1-15.8c7,4.6,15.3,7.1,23.7,7.1
		c15.6,0,30.1-8.3,37.9-21.9c7.8-13.5,7.8-30.2,0-43.8c-7.8-13.5-22.3-21.9-37.9-21.9c-8.4,0-16.7,2.5-23.7,7.1
		c-9.8-10-23.1-15.7-37.1-15.8c-14-0.1-27.4,5.4-37.4,15.2C443.1,427.6,437.5,441,437.5,455L437.5,455z"/>
</g>
</svg>
