<?xml version="1.0" encoding="utf-8"?>
<!-- Generator: Adobe Illustrator 26.1.0, SVG Export Plug-In . SVG Version: 6.00 Build 0)  -->
<svg version="1.1" id="Layer_1" xmlns="http://www.w3.org/2000/svg" xmlns:xlink="http://www.w3.org/1999/xlink" x="0px" y="0px"
	 viewBox="0 0 700 700" style="enable-background:new 0 0 700 700;" xml:space="preserve">
<style type="text/css">
	.st0{fill-rule:evenodd;clip-rule:evenodd;fill:#7B1710;}
</style>
<g>
	<path class="st0" d="M330,110.3c-18.7-1.2-36,9.8-42.8,27.3s-1.6,37.5,13.2,49c8.3,6.5,18.2,11.1,26.9,11.1
		c21.1,0.1,38.3-17.1,38.4-38.2l-10.9,0.6c-0.5,14.9-12.5,26.7-27.5,26.7c-1.8,0-3.5-0.2-5.1-0.5c1.8-2.4,3-5.6,3.9-9.3
		c5.2-22,21-22.4,35.6-23.4c4.2-0.3,10-0.3,15-0.3c8.7,0,9-11,1.5-12.4l-10-1.8c-2.8-7.5-7.4-14-13.9-19.3
		C348,114.5,339.4,110.9,330,110.3L330,110.3z"/>
	<path class="st0" d="M219.4,525.3h65.2c0,18-14.6,32.6-32.6,32.6C234,557.9,219.4,543.3,219.4,525.3L219.4,525.3z M528.5,492.7
		c18,0,32.6,14.6,32.6,32.6c0,18-14.6,32.6-32.6,32.6s-32.6-14.6-32.6-32.6c0-6.6,2-13.1,5.8-18.5l17.1,21.7
		c3.2,4.3,8.6,6.3,13.3,3.5c4.7-2.7,5.5-8.3,3.6-13.3l-13-25.5C524.5,492.9,526.5,492.7,528.5,492.7L528.5,492.7z M302.5,204.3
		c-11.1,0.3-21.7,6-24.6,15.9l-31.2,108.2c-4.9,16.8,0.6,39.3,26.1,39.3h88.3l17.5,92.7c3.1,16.3,34.2,16.6,32.9,0l-7.9-104.8
		c-1.3-16.8-8.1-23.1-20.2-24.7l-69.6-9.3l6.2-51.9l27.7,21c4.6,3.5,6.4,4.3,13.3,5.5l48.4,8.1c3.2,1.5,5.2,4.2,6.2,8l52,127.3
		c11.8,28.9,2.6,48.5-35,48.5h-67.1c-29.1,0-44.6-24.6-35.1-45.9l13.8-31c6.2-14.1-2.3-28.9-17.3-28.9h-98.8v-91.9
		c0-6.9-5.5-12.4-12.4-12.4h-36.6v29.2c0,3.3-2.7,6-6,6h-13.8c-3.3,0-6-2.7-6-6V278h-36.5c-6.9,0-12.4,5.5-12.4,12.4v112
		c0,6.9,5.5,12.4,12.4,12.4H199c-32,20.1-52.3,59.3-48.9,93.9c1.5,15,10.2,16.8,16.6,16.8h20.7c0,35.6,28.9,64.5,64.5,64.5
		s64.5-28.9,64.5-64.5h147.5c0,35.6,28.9,64.5,64.5,64.5s64.5-28.9,64.5-64.5c0-11.3-3-22.4-8.7-32.2l4,0.6
		c7.3,1.1,9.1-7.8,5.5-15.6c-11.9-25.9-37.2-42.9-65.2-44.3c-2.7-0.1-5.2-1.7-5.2-5.1v-5.1c0-6.3,0-11.4-4.9-18.1l-69.9-97.3
		c-3.5-6.1-2.6-9.5,3.5-9.5h11.8c8,0,13.7-1.7,12.6-10.9l-3.5-23.2c-0.9-7.2-3.9-12.2-14.3-12.2h-18.5c-19.7,0-27.7,13.6-32.9,20.8
		c-1.3,1.7-2.1,3-3,4.2l-41-11.8l-37.6-51.5C319.9,207.2,311.1,204.1,302.5,204.3L302.5,204.3z"/>
</g>
</svg>
